<?xml version="1.0" standalone="no"?>
<!DOCTYPE svg PUBLIC "-//W3C//DTD SVG 20010904//EN"
 "http://www.w3.org/TR/2001/REC-SVG-20010904/DTD/svg10.dtd">
<svg version="1.0" xmlns="http://www.w3.org/2000/svg"
 width="192.000000pt" height="192.000000pt" viewBox="0 0 192.000000 192.000000"
 preserveAspectRatio="xMidYMid meet">
<metadata>
Created by potrace 1.10, written by Peter Selinger 2001-2011
</metadata>
<g transform="translate(0.000000,192.000000) scale(0.100000,-0.100000)"
fill="#000000" stroke="none">
<path d="M744 1895 c-295 -65 -560 -292 -674 -578 -38 -95 -60 -193 -60 -267
1 -73 12 -52 46 84 44 181 96 289 199 416 126 154 291 252 527 310 65 16 127
34 136 39 26 15 -100 12 -174 -4z"/>
<path d="M1017 1894 c18 -7 72 -23 120 -33 154 -35 263 -84 383 -175 177 -133
286 -311 346 -563 29 -125 44 -151 44 -76 0 120 -55 290 -138 423 -59 96 -206
243 -302 302 -138 86 -302 138 -425 137 l-60 -1 32 -14z"/>
<path d="M795 1785 c-394 -87 -675 -430 -675 -826 0 -349 240 -683 570 -795
108 -36 191 -47 314 -41 372 17 682 279 777 657 9 33 14 106 14 185 -1 105 -5
145 -24 210 -91 314 -336 544 -651 611 -81 17 -245 17 -325 -1z m370 -50 c275
-76 494 -296 571 -576 22 -78 25 -309 6 -379 -61 -216 -176 -378 -348 -490
-71 -46 -158 -84 -254 -112 -70 -19 -301 -16 -379 6 -282 77 -500 295 -577
577 -25 89 -25 309 0 398 86 313 343 543 661 595 57 9 260 -3 320 -19z"/>
<path d="M802 1580 c-226 -59 -404 -239 -462 -466 -87 -338 124 -687 466 -774
338 -87 687 124 774 466 87 338 -124 687 -466 774 -98 25 -215 25 -312 0z
m339 -49 c230 -72 400 -289 416 -532 26 -394 -334 -705 -722 -624 -219 46
-409 230 -460 446 -78 330 144 669 478 729 74 13 213 4 288 -19z"/>
<path d="M843 1466 c-175 -44 -317 -175 -375 -345 -32 -93 -32 -230 1 -324
123 -361 575 -475 844 -213 68 67 104 121 133 201 61 167 33 344 -76 488 -95
125 -229 196 -384 203 -56 2 -111 -1 -143 -10z m208 -36 c247 -47 422 -297
381 -542 -18 -107 -60 -188 -136 -264 -190 -190 -482 -190 -672 0 -189 189
-190 482 -1 670 118 119 268 166 428 136z"/>
<path d="M1896 911 c-4 -13 -21 -76 -37 -140 -59 -238 -182 -427 -364 -556
-120 -85 -210 -124 -389 -165 -128 -29 -140 -42 -36 -37 247 13 525 177 680
402 92 134 163 342 158 460 -2 48 -5 55 -12 36z"/>
<path d="M10 873 c0 -119 55 -289 138 -423 60 -98 215 -252 310 -307 137 -81
301 -133 417 -133 79 1 59 12 -79 45 -143 33 -243 75 -344 141 -206 138 -328
316 -394 579 -36 146 -47 169 -48 98z"/>
</g>
</svg>
